<?xml version="1.0" encoding="UTF-8" standalone="no"?>
<!-- Created with Inkscape (http://www.inkscape.org/) -->

<svg
   width="88.626022mm"
   height="52.966793mm"
   viewBox="0 0 88.626022 52.966793"
   version="1.1"
   id="svg1"
   xmlns="http://www.w3.org/2000/svg"
   xmlns:svg="http://www.w3.org/2000/svg">
  <defs
     id="defs1" />
  <g
     id="g1"
     transform="translate(-210.7238,-643.33051)">
    <path
       d="m 224.69379,659.1643 q 0,1.23613 -0.38946,2.31986 -0.38947,1.0668 -1.1176,1.8796 -0.7112,0.8128 -1.7272,1.27 -0.99906,0.4572 -2.21826,0.4572 h -5.97746 v -1.69333 h 5.97746 q 1.1684,0 2.01506,-0.57574 0.84667,-0.57573 1.28693,-1.52399 0.4572,-0.9652 0.4572,-2.1336 0,-1.1684 -0.4572,-2.13359 -0.44026,-0.9652 -1.28693,-1.524 -0.84666,-0.57573 -2.01506,-0.57573 h -6.82412 v 10.15998 h -1.69333 v -11.85331 h 8.51745 q 1.2192,0 2.21826,0.4572 1.016,0.45719 1.7272,1.28693 0.72813,0.81279 1.1176,1.89653 0.38946,1.06679 0.38946,2.28599 z m 14.42716,5.92666 h -12.25971 v -11.85331 h 12.25971 v 1.69333 h -10.56638 v 8.46665 h 10.56638 z m -1.43933,-5.07999 h -8.28039 v -1.69333 h 8.28039 z m 17.01796,5.07999 h -1.69333 v -3.38666 h -9.46572 v -1.69333 h 9.46572 v -5.07999 h -6.07906 q -1.15146,0 -2.11666,0.57573 -0.9652,0.5588 -1.54093,1.524 -0.5588,0.96519 -0.5588,2.13359 v 5.92666 h -1.69333 v -5.92666 q 0,-1.2192 0.4572,-2.28599 0.4572,-1.08374 1.27,-1.89653 0.8128,-0.82974 1.8796,-1.28693 1.08373,-0.4572 2.30292,-0.4572 h 7.77239 z m 16.62851,0 h -2.286 l -6.04518,-6.09599 -3.7592,2.70933 v 3.38666 h -1.69333 v -11.85331 h 1.69333 v 6.60398 l 9.29639,-6.60398 h 2.47226 l -6.72252,4.82599 z m 3.03106,0 h -1.69333 v -11.85331 h 1.69333 z m 4.53812,0 h -1.69333 v -11.85331 h 0.84666 q 1.23613,0 2.67546,0.47413 1.45627,0.47413 2.91253,1.33773 1.45626,0.8636 2.7432,2.06586 1.30386,1.18533 2.23519,2.6416 v -6.51932 h 1.69333 v 11.85331 h -1.69333 q 0,-1.55787 -0.64346,-2.98026 -0.62654,-1.43933 -1.6764,-2.6416 -1.04987,-1.2192 -2.3368,-2.15053 -1.26999,-0.94826 -2.59079,-1.54093 -1.3208,-0.6096 -2.47226,-0.77893 z"
       id="path14"
       style="font-size:16.9333px;font-family:'Bruno Ace SC';-inkscape-font-specification:'Bruno Ace SC, @wght=900';font-variation-settings:'wght' 900;letter-spacing:0px;fill:#ffffff;stroke-width:0.264583"
       aria-label="DEAKIN" />
    <path
       style="font-variation-settings:'wght' 900;fill:none;fill-opacity:1;stroke:#ffffff;stroke-width:1.64183;stroke-linecap:butt;stroke-linejoin:round;stroke-dasharray:none;stroke-opacity:1"
       d="m 241.84439,667.22933 v 5.50985 l 6.01412,5.50987 6.01414,-5.50987 v -5.50985 0"
       id="path15" />
    <path
       style="font-size:16.9333px;font-family:'Bruno Ace SC';-inkscape-font-specification:'Bruno Ace SC, @wght=900';font-variation-settings:'wght' 900;letter-spacing:0px;fill:#ffffff;stroke-width:0.264583"
       d="m 286.34792,679.06095 h -2.286 l -3.55599,-3.38666 h -5.19853 v -1.6764 h 6.80719 c 0.47413,0 0.90311,-0.11289 1.28693,-0.33866 0.38382,-0.23707 0.68862,-0.54751 0.9144,-0.93133 0.22578,-0.39511 0.33867,-0.82409 0.33867,-1.28694 0,-0.47413 -0.11289,-0.9031 -0.33867,-1.28693 -0.22578,-0.38382 -0.53058,-0.68862 -0.9144,-0.91439 -0.38382,-0.22578 -0.8128,-0.33867 -1.28693,-0.33867 h -7.75545 v 10.15998 h -1.69333 v -11.85331 h 9.44878 c 0.77893,0 1.49013,0.19191 2.1336,0.57573 0.64346,0.37253 1.15146,0.88053 1.52399,1.524 0.38383,0.64347 0.57574,1.35466 0.57574,2.13359 0,0.69991 -0.15805,1.34902 -0.47414,1.94733 -0.3048,0.59831 -0.72813,1.09502 -1.26999,1.49013 -0.53058,0.38383 -1.13454,0.63218 -1.81187,0.74507 z"
       id="path16" />
    <path
       style="font-size:16.9333px;font-family:'Bruno Ace SC';-inkscape-font-specification:'Bruno Ace SC, @wght=900';font-variation-settings:'wght' 900;letter-spacing:0px;fill:#ffffff;stroke-width:0.264583"
       d="m 268.36476,673.98096 h -8.28039 v -1.69333 h 8.28039 z"
       id="path17" />
    <path
       style="font-size:16.9333px;font-family:'Bruno Ace SC';-inkscape-font-specification:'Bruno Ace SC, @wght=900';font-variation-settings:'wght' 900;letter-spacing:0px;fill:#ffffff;stroke-width:0.264583"
       d="m 269.80409,679.06095 h -12.25971 v -11.85331 h 12.25971 v 1.69333 h -10.56638 v 8.46665 h 10.56638 z"
       id="path20" />
    <path
       id="path21"
       style="font-variation-settings:'wght' 900;fill:#ffffff;fill-opacity:1;stroke:none;stroke-width:0.343863;stroke-linejoin:miter;stroke-dasharray:none;stroke-opacity:1"
       d="m 232.99108,667.20763 a 6.1299223,5.9267215 0 0 0 -6.12985,5.92664 6.1299223,5.9267215 0 0 0 6.12985,5.92667 6.1299223,5.9267215 0 0 0 6.12986,-5.92667 6.1299223,5.9267215 0 0 0 -0.0293,-0.42944 5.2425565,5.068771 0 0 1 -5.21328,4.64022 5.2425565,5.068771 0 0 1 -5.24249,-5.06872 5.2425565,5.068771 0 0 1 4.7998,-5.04046 6.1299223,5.9267215 0 0 0 -0.44467,-0.0283 z" />
    <path
       style="font-size:16.9333px;font-family:'Bruno Ace SC';-inkscape-font-specification:'Bruno Ace SC, @wght=900';font-variation-settings:'wght' 900;letter-spacing:0px;fill:#ffffff;stroke-width:0.264583"
       d="m 224.40593,679.06095 h -2.286 l -3.55599,-3.38666 h -5.19853 v -1.6764 h 6.80719 c 0.47413,0 0.90311,-0.11289 1.28693,-0.33866 0.38382,-0.23707 0.68862,-0.54751 0.9144,-0.93133 0.22578,-0.39511 0.33867,-0.82409 0.33867,-1.28694 0,-0.47413 -0.11289,-0.9031 -0.33867,-1.28693 -0.22578,-0.38382 -0.53058,-0.68862 -0.9144,-0.91439 -0.38382,-0.22578 -0.8128,-0.33867 -1.28693,-0.33867 h -7.75545 v 10.15998 h -1.69333 v -11.85331 h 9.44878 c 0.77893,0 1.49013,0.19191 2.1336,0.57573 0.64346,0.37253 1.15146,0.88053 1.52399,1.524 0.38383,0.64347 0.57574,1.35466 0.57574,2.13359 0,0.69991 -0.15805,1.34902 -0.47414,1.94733 -0.3048,0.59831 -0.72813,1.09502 -1.26999,1.49013 -0.53058,0.38383 -1.13454,0.63218 -1.81187,0.74507 z"
       id="path22" />
    <path
       style="font-variation-settings:'wght' 900;fill:#ffffff;fill-opacity:1;fill-rule:nonzero;stroke:none;stroke-width:0.798792;stroke-linecap:butt;stroke-linejoin:round;stroke-dasharray:none;stroke-opacity:1"
       id="path23"
       d="m 250.28602,652.44895 c 1.2118,-0.68786 4.31854,-2.32284 8.38998,-3.90098 2.99211,-1.15976 7.40527,-2.60786 12.55798,-3.26602 3.12047,-0.39857 6.42977,-0.49394 9.66872,-0.0788 2.88281,0.36945 5.63945,1.1358 8.06163,2.38792 2.29376,1.18573 4.09517,2.71112 5.38875,4.49874 1.27506,1.76202 2.04938,3.76823 2.33125,5.94109 0.28999,2.23539 0.0564,4.62791 -0.66654,7.08624 -0.75436,2.56505 -2.01951,5.12986 -3.68323,7.61169 -0.0531,0.0791 -0.1067,0.15854 -0.16097,0.23806 -3.40346,4.98993 -8.65542,9.96332 -15.45857,13.97501 -6.41136,3.78067 -13.55541,6.31212 -20.4424,7.14197 -3.62004,0.4362 -6.83917,0.36688 -9.61763,-0.0517 -3.12359,-0.47055 -5.64351,-1.37339 -7.62423,-2.46245 -2.56502,-1.41033 -4.18632,-3.10591 -5.22617,-4.59213 -0.2839,-0.40575 -0.5244,-0.79566 -0.72898,-1.15913 -1.30824,-2.32423 -1.7248,-4.51017 -1.84315,-5.44272 -0.003,0.901 -0.0318,3.22664 1.12985,5.80227 0.18177,0.40301 0.40251,0.83817 0.67116,1.29407 0.98529,1.67197 2.61549,3.61947 5.30291,5.28388 2.07374,1.28433 4.72982,2.36686 8.0281,2.98688 2.93203,0.55117 6.32297,0.72601 10.12528,0.3665 7.22411,-0.68304 14.7304,-3.17567 21.47275,-7.01358 7.14792,-4.06877 12.7717,-9.25561 16.42949,-14.61532 0.0584,-0.0856 0.11622,-0.17107 0.17338,-0.25635 1.78911,-2.6695 3.17186,-5.49517 3.98252,-8.38048 0.77798,-2.76901 1.01125,-5.53532 0.60578,-8.16565 -0.39555,-2.56601 -1.38841,-4.9275 -2.96545,-6.96543 -1.59531,-2.06154 -3.73516,-3.72446 -6.31827,-4.95179 -2.72011,-1.29241 -5.73059,-2.00485 -8.77762,-2.28616 -3.42663,-0.31634 -6.86917,-0.0868 -10.05928,0.44554 -5.23842,0.87408 -9.70888,2.55258 -12.66639,3.89141 -4.06375,1.8396 -6.91582,3.83886 -8.08066,4.63745 z" />
  </g>
</svg>
