<svg xmlns="http://www.w3.org/2000/svg" id="Layer_2" viewBox="0 0 310.38 80"><defs><style>.cls-1{fill:#004899}.cls-6{fill:#201a3d}.cls-7{fill:#3c3c3b}</style></defs><g id="Layer_1-2"><path d="M78.59 35.05c0 .32-.14.59-.36.77-.23.18-.54.32-.9.32-.23 0-.59 0-.95-.05-.41-.05-.81-.05-1.18-.14-.41-.05-.72-.14-1-.27-.27-.14-.41-.27-.41-.41V6.86c0-.18.14-.32.41-.41.27-.09.63-.23 1-.27.41-.05.77-.09 1.18-.14.41-.05.72-.05.95-.05.36 0 .63.09.9.32.23.23.36.45.36.77v27.96ZM88.77 35.05c0 .32-.14.59-.36.77-.23.18-.54.32-.9.32-.23 0-.59 0-.95-.05-.41-.05-.81-.05-1.18-.14-.41-.05-.72-.14-1-.27-.27-.14-.41-.27-.41-.41V6.86c0-.18.14-.32.41-.41.27-.09.63-.23 1-.27.41-.05.77-.09 1.18-.14.41-.05.72-.05.95-.05.36 0 .63.09.9.32.23.23.36.45.36.77v27.96ZM93.83 31.15c.23.05.54.14 1 .23.45.09.95.23 1.54.32.59.09 1.22.18 1.9.27.68.09 1.4.14 2.08.14.77 0 1.49-.05 2.17-.18.68-.14 1.31-.32 1.86-.59s.95-.68 1.31-1.13c.32-.45.5-1.04.5-1.76 0-.95-.32-1.81-.95-2.49-.63-.68-1.45-1.31-2.4-1.9-.95-.59-1.99-1.18-3.12-1.81-1.13-.59-2.17-1.31-3.12-2.13-.95-.81-1.76-1.76-2.4-2.85-.63-1.09-.95-2.44-.95-3.98 0-1.31.23-2.44.72-3.35.45-.9 1.13-1.67 1.95-2.26.86-.59 1.85-1 2.99-1.27 1.18-.27 2.44-.41 3.85-.41.32 0 .77 0 1.36.05.59.05 1.27.09 1.95.14.68.09 1.36.14 1.99.27.68.09 1.18.27 1.58.45.36.18.59.32.68.54.09.18.09.5.04.95-.04.72-.18 1.31-.45 1.76-.23.45-.59.68-.99.59-.68-.14-1.45-.27-2.31-.41-.86-.14-1.86-.18-2.9-.18-1.67 0-3.03.23-4.07.72-1.04.5-1.58 1.31-1.58 2.44 0 .9.32 1.67.95 2.31s1.45 1.22 2.4 1.81c.95.59 1.99 1.18 3.12 1.76 1.13.59 2.17 1.31 3.12 2.13.95.81 1.76 1.81 2.4 2.94.63 1.13.95 2.53.95 4.21 0 1.54-.27 2.81-.86 3.8-.59 1-1.36 1.76-2.31 2.35-.95.59-2.08.95-3.3 1.18-1.27.23-2.58.32-3.89.32-.63 0-1.27 0-1.95-.05-.68-.05-1.36-.09-1.99-.18s-1.27-.18-1.85-.27c-.59-.09-1.09-.23-1.49-.36-.41-.14-.63-.27-.72-.45-.09-.18-.09-.5-.05-.9.09-.77.23-1.45.45-1.99.14-.59.45-.81.81-.77ZM115.01 35.32V7.54c0-.32.13-.54.36-.77.23-.18.54-.32.9-.32h8.96c1.85 0 3.44.14 4.75.41 1.31.27 2.4.72 3.21 1.4.81.68 1.45 1.58 1.81 2.71.36 1.13.59 2.53.59 4.3v.9c0 1.27-.09 2.4-.32 3.3-.18.95-.5 1.76-.95 2.44-.45.68-1 1.22-1.72 1.63s-1.58.72-2.58.95l5.61 9.73c.32.5.45.9.45 1.18 0 .18-.05.32-.18.41-.14.09-.27.18-.45.23-.18.05-.32.09-.5.09h-.36c-.23 0-.54 0-.91-.05-.36-.05-.77-.09-1.13-.14-.41-.05-.72-.18-1.04-.32-.32-.14-.54-.32-.68-.59l-6.02-10.13h-4.98v10.18c0 .32-.14.59-.36.77-.23.18-.54.27-.86.27-.23 0-.59 0-.95-.05-.41-.05-.82-.05-1.18-.14-.41-.05-.72-.14-1-.27-.36-.05-.5-.23-.5-.36Zm10.45-24.48h-5.66v9.77h5.66c1.08 0 1.99-.05 2.67-.18.68-.14 1.18-.36 1.54-.68s.59-.77.72-1.36c.14-.59.18-1.31.18-2.22v-.9c0-.9-.04-1.67-.18-2.26s-.36-1.04-.72-1.36-.86-.54-1.54-.68c-.68-.09-1.58-.14-2.67-.14ZM145 35.05c0 .32-.14.59-.36.77-.23.18-.54.32-.9.32-.23 0-.59 0-.95-.05-.41-.05-.82-.05-1.18-.14-.41-.05-.72-.14-.99-.27-.27-.14-.41-.27-.41-.41V6.86c0-.18.14-.32.41-.41.27-.09.63-.23.99-.27.41-.05.77-.09 1.18-.14.41-.05.72-.05.95-.05.36 0 .63.09.9.32.23.23.36.45.36.77v27.96Z" class="cls-6"></path><path d="M73.88 50.07c0 .09 0 .14-.05.23-.05.05-.09.09-.18.09-.14 0-.23 0-.32-.05s-.14-.09-.14-.09v-8.32s.05-.09.14-.14c.09-.05.23-.05.32-.05s.14.05.18.09c.05.05.05.14.05.23v8.01ZM80.85 49.07v-7.19s.05-.09.14-.09c.09-.05.23-.05.36-.05.09 0 .14.05.14.09.05.05.05.14.05.23v8.05c0 .09 0 .14-.05.23s-.09.09-.14.09c-.09 0-.18 0-.27-.05-.09-.05-.18-.05-.18-.09l-4.66-7.28v7.06c0 .09 0 .14-.05.23-.05.05-.09.09-.14.09-.14 0-.23 0-.32-.05s-.14-.09-.14-.09v-8.32s.05-.09.14-.14c.09-.05.18-.05.32-.05.05 0 .09 0 .14.05.05.05.05.09.09.09l4.57 7.19ZM82.89 49.52c.18.05.45.14.81.18.36.05.68.09 1.09.09.23 0 .45 0 .68-.05.23-.05.45-.09.63-.23.18-.09.36-.23.5-.41.14-.18.18-.41.18-.72 0-.36-.09-.68-.27-.95-.18-.27-.41-.5-.72-.72-.27-.23-.59-.45-.95-.68l-.95-.68c-.32-.23-.54-.5-.72-.81a1.99 1.99 0 0 1-.27-1.04c0-.32.05-.59.18-.81.14-.23.32-.41.54-.59.23-.14.5-.27.77-.32.27-.09.59-.09.95-.09h.41c.18 0 .32.05.5.05s.32.05.5.09c.14.05.27.05.41.09.09.05.14.05.18.09.05.05.05.09 0 .14a.4.4 0 0 1-.09.23c-.05.05-.09.09-.18.09-.27-.05-.54-.09-.77-.14-.23-.05-.5-.05-.77-.05s-.5.05-.72.09c-.23.05-.41.14-.59.23s-.32.23-.41.36c-.09.14-.14.32-.14.54 0 .32.09.59.27.81.18.23.41.45.72.68.27.23.59.45.95.63l.95.68c.27.27.54.54.72.86.18.32.27.72.27 1.13 0 .36-.09.68-.23.95-.14.27-.36.45-.59.63-.23.18-.54.27-.81.32-.32.05-.63.09-1 .09-.18 0-.36 0-.54-.05-.18 0-.41-.05-.59-.05-.18-.05-.36-.05-.5-.09-.18-.05-.27-.05-.41-.09-.09-.05-.14-.05-.14-.09s-.05-.09-.05-.14c0-.09.05-.18.05-.27-.05 0 .05-.05.14 0ZM91.25 42.47v7.6c0 .09 0 .14-.05.23-.05.05-.09.09-.14.09-.14 0-.23 0-.36-.05-.14-.05-.14-.09-.14-.09v-7.74h-2.35c-.09 0-.14 0-.23-.05-.05-.05-.09-.09-.09-.14 0-.09 0-.18.05-.27.05-.09.05-.14.09-.14h5.56c.09 0 .14 0 .18.05.05.05.09.09.09.14 0 .09 0 .23-.05.32s-.05.14-.09.14h-2.49v-.09ZM95.46 50.07c0 .09 0 .14-.05.23-.05.05-.09.09-.18.09-.14 0-.23 0-.32-.05s-.14-.09-.14-.09v-8.32s.05-.09.14-.14c.09-.05.23-.05.32-.05s.14.05.18.09c.05.05.05.14.05.23v8.01ZM99.67 42.47v7.6c0 .09 0 .14-.05.23-.05.05-.09.09-.14.09-.14 0-.23 0-.36-.05-.14-.05-.14-.09-.14-.09v-7.74h-2.35c-.09 0-.14 0-.23-.05-.05-.05-.09-.09-.09-.14 0-.09 0-.18.05-.27.05-.09.05-.14.09-.14h5.57c.09 0 .13 0 .18.05.04.05.09.09.09.14 0 .09 0 .23-.04.32s-.04.14-.09.14h-2.49v-.09ZM108.31 47.31v-5.43s.05-.09.14-.14c.09-.05.23-.05.32-.05s.14.05.18.09c.04.05.04.14.04.23v5.29c0 .59-.04 1.04-.18 1.45-.14.41-.32.68-.54.95-.23.23-.54.41-.9.5s-.81.14-1.27.14h-.09c-.45 0-.9-.05-1.22-.14-.36-.09-.63-.27-.86-.5-.23-.23-.41-.54-.54-.95-.14-.41-.18-.86-.18-1.45v-5.43s.05-.09.14-.14c.09-.05.23-.05.36-.05.09 0 .14.05.14.09.05.05.05.14.05.23v5.29c0 .45.04.86.14 1.18.09.32.23.59.36.77.18.18.41.32.63.41.23.09.59.14.95.14h.09c.41 0 .72-.05 1-.14.27-.09.5-.23.68-.41s.32-.45.41-.77c.14-.36.18-.72.18-1.18ZM113.2 42.47v7.6c0 .09 0 .14-.05.23-.04.05-.09.09-.14.09-.14 0-.23 0-.36-.05-.14-.05-.14-.09-.14-.09v-7.74h-2.35c-.09 0-.14 0-.23-.05-.05-.05-.09-.09-.09-.14 0-.09 0-.18.04-.27.05-.09.05-.14.09-.14h5.57c.09 0 .14 0 .18.05.05.05.09.09.09.14 0 .09 0 .23-.04.32-.05.09-.05.14-.09.14h-2.49v-.09ZM116.73 50.07v-7.92c0-.18.09-.32.23-.32h4.34s.14 0 .18.05c.05.05.09.09.09.14 0 .09 0 .18-.05.27-.05.09-.05.14-.09.14h-3.94v3.21h3.57s.14 0 .18.05c.04.05.09.09.09.14 0 .09 0 .18-.05.27-.04.09-.09.14-.09.14h-3.67v3.35h3.85s.14 0 .18.05c.04.05.09.09.09.14 0 .09 0 .18-.04.27s-.04.14-.09.14h-4.25c-.09 0-.18 0-.27-.05-.23.05-.27 0-.27-.05ZM125.96 46.27v3.8c0 .09 0 .14-.04.23-.05.05-.09.09-.18.09s-.23 0-.32-.05-.18-.09-.18-.09v-8.14c0-.09.04-.14.09-.18.04-.05.14-.05.27-.05h4.16s.14 0 .18.05c.05.05.09.09.09.14 0 .09 0 .18-.04.27-.05.09-.05.14-.09.14h-3.94v3.21h3.35c.09 0 .14 0 .18.05.04.05.09.09.09.14 0 .09 0 .23-.04.32s-.04.14-.09.14h-3.48v-.05ZM134.1 50.38h-.09c-.54 0-1-.05-1.4-.14-.41-.09-.72-.27-.99-.5-.27-.23-.45-.54-.59-.95-.13-.41-.18-.86-.18-1.45v-2.49c0-.59.04-1.09.18-1.45.14-.41.32-.72.59-.95.27-.23.59-.41.99-.5.41-.09.86-.14 1.4-.14h.09c.54 0 .99.05 1.4.14.41.09.72.27.99.5.27.23.45.54.59.95.14.41.18.86.18 1.45v2.49c0 .59-.04 1.09-.18 1.45-.14.41-.32.72-.59.95-.27.23-.59.41-.99.5-.41.09-.86.14-1.4.14Zm-2.53-5.56v2.44c0 .45.05.86.14 1.18.09.32.23.59.45.77.18.18.45.32.77.41.32.09.68.14 1.13.14h.09c.45 0 .82-.05 1.13-.14.32-.09.54-.23.77-.41.18-.18.36-.45.45-.77.09-.32.14-.72.14-1.18v-2.44c0-.45-.05-.86-.14-1.18-.09-.32-.23-.59-.45-.77-.18-.18-.45-.32-.77-.41a4.1 4.1 0 0 0-1.13-.14h-.09c-.45 0-.81.05-1.13.14-.32.09-.54.23-.77.41-.18.18-.36.45-.45.77-.09.32-.14.68-.14 1.18ZM138.76 50.2v-8.05c0-.09 0-.14.04-.23.05-.05.09-.09.18-.09h2.4c.5 0 .95.05 1.31.14s.63.23.82.41c.18.18.32.45.41.72.09.32.13.68.13 1.13v.14c0 .36-.04.68-.09.95-.04.27-.14.5-.27.68-.13.18-.32.32-.54.45-.23.14-.54.18-.86.23l1.81 3.3s.04.09.04.14c.04.05.04.09.04.14s-.04.09-.09.09-.09.05-.14.05c-.09 0-.23-.05-.32-.09a.485.485 0 0 1-.27-.23l-1.81-3.3h-2.04v3.35c0 .09 0 .14-.05.23-.04.09-.09.09-.14.09-.14 0-.23 0-.32-.05-.23-.09-.27-.14-.27-.18Zm2.67-7.74h-1.95v3.66h1.95c.41 0 .72-.05.95-.09.23-.05.45-.14.59-.27.13-.14.23-.32.32-.54.05-.23.09-.54.09-.9v-.14c0-.36-.04-.63-.09-.9-.04-.23-.13-.41-.32-.54-.14-.14-.36-.23-.59-.27h-.95ZM73.88 61.83c0 .09 0 .14-.05.23-.05.05-.09.09-.18.09-.14 0-.23 0-.32-.05s-.14-.09-.14-.09v-8.32s.05-.09.14-.14c.09-.05.23-.05.32-.05s.14.05.18.09c.05.05.05.14.05.23v8.01ZM80.85 60.83v-7.19s.05-.09.14-.09c.09-.05.23-.05.36-.05.09 0 .14.05.14.09.05.05.05.14.05.23v8.05c0 .09 0 .14-.05.23s-.09.09-.14.09c-.09 0-.18 0-.27-.05-.09-.05-.18-.05-.18-.09l-4.66-7.28v7.06c0 .09 0 .14-.05.23-.05.05-.09.09-.14.09-.14 0-.23 0-.32-.05s-.14-.09-.14-.09v-8.32s.05-.09.14-.14c.09-.05.18-.05.32-.05.05 0 .09 0 .14.05.05.05.05.09.09.09l4.57 7.19ZM85.69 54.23v7.6c0 .09 0 .14-.05.23-.05.05-.09.09-.14.09-.14 0-.23 0-.36-.05-.14-.05-.14-.09-.14-.09v-7.74h-2.35c-.09 0-.14 0-.23-.05-.05-.05-.09-.09-.09-.14 0-.09 0-.18.05-.27s.05-.14.09-.14h5.56c.09 0 .14 0 .18.05.05.05.09.09.09.14 0 .09 0 .23-.05.32s-.05.14-.09.14h-2.49v-.09ZM89.22 61.83v-7.92c0-.18.09-.32.23-.32h4.34s.14 0 .18.05c.05.05.09.09.09.14 0 .09 0 .18-.05.27-.05.09-.05.14-.09.14h-3.94v3.21h3.57s.14 0 .18.05c.05.05.09.09.09.14 0 .09 0 .18-.05.27-.05.09-.09.14-.09.14h-3.66v3.35h3.85s.14 0 .18.05c.05.05.09.09.09.14 0 .09 0 .18-.05.27-.05.09-.05.14-.09.14h-4.25c-.09 0-.18 0-.27-.05-.23.05-.27 0-.27-.05ZM99.76 62.01h-3.98c-.14 0-.23 0-.27-.05-.05-.05-.09-.05-.09-.09v-8.19s.05-.09.14-.14c.09-.05.23-.05.32-.05s.14.05.18.09.05.14.05.23v7.6h3.53s.14 0 .18.05c.05.05.09.09.09.14 0 .09 0 .23-.05.32-.05.05-.05.09-.09.09ZM105.28 62.01h-3.98c-.14 0-.23 0-.27-.05-.04-.05-.09-.05-.09-.09v-8.19s.05-.09.14-.14c.09-.05.23-.05.32-.05s.14.05.18.09c.04.05.04.14.04.23v7.6h3.53s.14 0 .18.05c.05.05.09.09.09.14 0 .09 0 .23-.04.32-.05.05-.05.09-.09.09ZM107.14 61.83c0 .09 0 .14-.05.23-.04.05-.09.09-.18.09-.14 0-.23 0-.32-.05s-.14-.09-.14-.09v-8.32s.05-.09.14-.14c.09-.05.23-.05.32-.05s.14.05.18.09c.05.05.05.14.05.23v8.01ZM109.35 56.63v2.35c0 .45.05.86.14 1.22.09.32.23.59.45.77.23.18.45.36.77.45.32.09.68.14 1.13.14h.14c.32 0 .63 0 .9-.05s.59-.09.95-.14V58.2s.04-.09.14-.09c.09-.05.18-.05.32-.05.09 0 .14.05.18.09.05.05.05.14.05.27v3.08c0 .14 0 .23-.05.27-.04.05-.09.09-.13.09-.09.05-.23.09-.41.14-.18.05-.36.09-.59.09-.23.05-.45.05-.68.09-.23 0-.45.05-.68.05h-.14c-.54 0-.99-.05-1.4-.14-.41-.09-.72-.27-1-.5-.27-.23-.45-.54-.59-.95-.13-.41-.18-.86-.18-1.45V56.7c0-.59.09-1.09.23-1.45.14-.41.36-.72.63-.95.27-.23.63-.41 1.04-.5.41-.09.9-.14 1.45-.14h.23c.32 0 .63 0 .95.05.27 0 .54.05.72.09.18.05.36.09.5.14.14.05.18.09.18.14 0 .09 0 .18-.04.32s-.09.18-.14.18c-.14-.05-.27-.05-.41-.09-.14-.05-.27-.05-.45-.09-.18 0-.36-.05-.54-.05h-.9c-.5 0-.9.05-1.22.14-.32.09-.63.23-.81.41-.18.18-.36.45-.45.77-.23.05-.27.45-.27.95ZM116 61.83v-7.92c0-.18.09-.32.23-.32h4.34s.14 0 .18.05c.04.05.09.09.09.14 0 .09 0 .18-.05.27-.04.09-.04.14-.09.14h-3.94v3.21h3.57s.14 0 .18.05c.04.05.09.09.09.14 0 .09 0 .18-.04.27s-.09.14-.09.14h-3.67v3.35h3.85s.13 0 .18.05c.04.05.09.09.09.14 0 .09 0 .18-.04.27s-.04.14-.09.14h-4.25c-.09 0-.18 0-.27-.05-.23.05-.27 0-.27-.05ZM127.45 60.83v-7.19s.05-.09.14-.09c.09-.05.23-.05.36-.05.09 0 .14.05.14.09.05.05.05.14.05.23v8.05c0 .09 0 .14-.05.23-.04.09-.09.09-.14.09-.09 0-.18 0-.27-.05-.09-.05-.18-.05-.18-.09l-4.62-7.28v7.06c0 .09 0 .14-.04.23-.04.05-.09.09-.14.09-.13 0-.23 0-.32-.05s-.14-.09-.14-.09v-8.32s.04-.09.14-.14c.09-.05.18-.05.32-.05.05 0 .09 0 .14.05.04.05.04.09.09.09l4.52 7.19ZM132.34 54.23v7.6c0 .09 0 .14-.05.23-.04.05-.09.09-.14.09-.14 0-.23 0-.36-.05-.14-.05-.14-.09-.14-.09v-7.74h-2.35c-.09 0-.14 0-.23-.05-.04-.05-.09-.09-.09-.14 0-.09 0-.18.05-.27.04-.09.04-.14.09-.14h5.57c.09 0 .14 0 .18.05.04.05.09.09.09.14 0 .09 0 .23-.05.32-.04.09-.04.14-.09.14h-2.49v-.09ZM137.9 61.29c.18.05.45.14.82.18.36.05.68.09 1.09.09.23 0 .45 0 .68-.05.23-.05.45-.09.63-.23.18-.09.36-.23.5-.41.14-.18.18-.41.18-.72 0-.36-.09-.68-.27-.95-.18-.27-.41-.5-.72-.72-.27-.23-.59-.45-.95-.68l-.95-.68c-.32-.23-.54-.5-.72-.81a1.99 1.99 0 0 1-.27-1.04c0-.32.05-.59.18-.81.14-.23.32-.41.54-.59.23-.14.5-.27.77-.32.27-.09.59-.09.95-.09h.41c.18 0 .32.05.5.05s.32.05.5.09c.14.05.27.05.41.09.09.05.14.05.18.09.04.05.04.09 0 .14 0 .09-.04.18-.09.23-.04.05-.09.09-.18.09-.27-.05-.54-.09-.77-.14-.23-.05-.5-.05-.77-.05s-.5.05-.72.09c-.23.05-.41.14-.59.23s-.32.23-.41.36c-.09.14-.14.32-.14.54 0 .32.09.59.27.81.18.23.41.45.72.68.27.23.59.45.95.63l.95.68c.27.27.54.54.72.86.18.32.27.72.27 1.13 0 .36-.09.68-.23.95-.14.27-.36.45-.59.63-.23.18-.54.27-.82.32-.32.05-.63.09-.99.09-.18 0-.36 0-.54-.05-.18 0-.41-.05-.59-.05-.18-.05-.36-.05-.5-.09-.18-.05-.27-.05-.41-.09-.09-.05-.14-.05-.14-.09s-.05-.09-.05-.14c0-.09.05-.18.05-.27-.05 0 .05-.05.14 0ZM146.41 58.71v3.12c0 .09 0 .14-.05.23-.05.05-.09.09-.18.09-.14 0-.23 0-.36-.05-.14-.05-.14-.09-.14-.09v-3.26l-2.53-5.02c-.04-.09-.04-.14 0-.18.05-.05.09-.05.18-.05.14 0 .27 0 .36.05.09 0 .14.05.18.14l2.17 4.39 2.17-4.39c.04-.09.09-.14.18-.14s.23-.05.36-.05c.09 0 .14 0 .18.05.05.05.05.09-.04.18l-2.49 4.98ZM149.26 61.29c.18.05.45.14.81.18.36.05.68.09 1.09.09.23 0 .45 0 .68-.05.23-.05.45-.09.63-.23.18-.09.36-.23.5-.41.14-.18.18-.41.18-.72 0-.36-.09-.68-.27-.95-.18-.27-.41-.5-.72-.72-.27-.23-.59-.45-.95-.68l-.95-.68c-.32-.23-.54-.5-.72-.81a1.99 1.99 0 0 1-.27-1.04c0-.32.04-.59.18-.81.14-.23.32-.41.54-.59.23-.14.5-.27.77-.32.27-.09.59-.09.95-.09h.41c.18 0 .32.05.5.05s.32.05.5.09c.18.05.27.05.41.09.09.05.14.05.18.09.04.05.04.09 0 .14 0 .09-.04.18-.09.23-.04.05-.09.09-.18.09-.27-.05-.54-.09-.77-.14-.27-.05-.5-.05-.77-.05s-.5.05-.72.09c-.23.05-.41.14-.59.23s-.32.23-.41.36c-.09.14-.14.32-.14.54 0 .32.09.59.27.81.18.23.41.45.72.68.27.23.59.45.95.63l.95.68c.27.27.54.54.72.86.18.32.27.72.27 1.13 0 .36-.09.68-.23.95-.14.27-.36.45-.59.63-.23.18-.5.27-.82.32-.32.05-.63.09-.99.09-.18 0-.36 0-.54-.05-.18 0-.41-.05-.59-.05-.18-.05-.36-.05-.5-.09-.18-.05-.27-.05-.41-.09-.09-.05-.14-.05-.14-.09s-.04-.09-.04-.14c0-.09.04-.18.04-.27 0 0 .05-.05.14 0ZM157.63 54.23v7.6c0 .09 0 .14-.05.23-.04.05-.09.09-.14.09-.14 0-.23 0-.36-.05-.09-.05-.14-.09-.14-.09v-7.74h-2.35c-.09 0-.14 0-.23-.05-.05-.05-.09-.09-.09-.14 0-.09 0-.18.04-.27.05-.09.05-.14.09-.14h5.57c.09 0 .13 0 .18.05.04.05.09.09.09.14 0 .09 0 .23-.04.32s-.04.14-.09.14h-2.49v-.09ZM161.15 61.83v-7.92c0-.18.09-.32.23-.32h4.34s.13 0 .18.05c.04.05.09.09.09.14 0 .09 0 .18-.04.27s-.04.14-.09.14h-3.94v3.21h3.57s.14 0 .18.05c.05.05.09.09.09.14 0 .09 0 .18-.04.27-.05.09-.09.14-.09.14h-3.67v3.35h3.85s.14 0 .18.05c.04.05.09.09.09.14 0 .09 0 .18-.04.27s-.04.14-.09.14h-4.25c-.09 0-.18 0-.27-.05-.23.05-.27 0-.27-.05ZM176.63 61.97l-1.36-7.01s-.04-.09-.04-.18v-.18c0 .09-.04.18-.04.23s-.05.09-.05.14l-2.53 6.97c-.05.14-.14.18-.27.18s-.23 0-.32-.05a.561.561 0 0 1-.18-.14l-2.53-6.97s-.04-.14-.04-.18-.05-.14-.05-.18l-.04.36-1.4 7.01c0 .09-.09.14-.18.14-.09.05-.23.05-.36.05-.04 0-.09 0-.14-.05-.04-.05-.09-.09-.04-.14l1.72-8.32.14-.14c.04-.05.18-.05.32-.05.09 0 .18.05.23.18l2.58 6.97c.04.09.09.23.09.32.04.14.04.23.09.32.05-.09.05-.23.09-.32.04-.09.04-.23.09-.32l2.53-7.01s.09-.09.18-.14c.09-.05.18-.05.27-.05s.14 0 .18.05c.05.05.05.09.09.14l1.72 8.32c0 .09 0 .14-.04.18-.05.05-.09.05-.14.05-.14 0-.27 0-.36-.05-.09-.05-.18-.09-.18-.14ZM178.44 61.29c.18.05.45.14.81.18.32.09.68.09 1.09.09.23 0 .45 0 .68-.05.23-.05.45-.09.63-.23.18-.09.36-.23.5-.41.14-.18.18-.41.18-.72 0-.36-.09-.68-.27-.95-.18-.27-.45-.5-.72-.72-.27-.23-.59-.45-.95-.68l-.95-.68c-.27-.23-.54-.5-.72-.81a1.99 1.99 0 0 1-.27-1.04c0-.32.04-.59.18-.81.14-.23.32-.41.54-.59.23-.14.5-.27.77-.32.27-.09.59-.09.95-.09h.41c.18 0 .32.05.5.05s.32.05.5.09c.18.05.27.05.41.09.09.05.14.05.18.09.05.05.05.09 0 .14 0 .09-.04.18-.09.23-.05.05-.09.09-.18.09-.27-.05-.54-.09-.77-.14-.23-.05-.5-.05-.77-.05s-.5.05-.72.09c-.23.05-.41.14-.59.23s-.32.23-.41.36c-.09.14-.14.32-.14.54 0 .32.09.59.27.81.18.23.41.45.72.68.27.23.59.45.95.63l.95.68c.27.27.54.54.72.86.18.32.27.72.27 1.13 0 .36-.09.68-.23.95-.14.27-.36.45-.59.63-.23.18-.5.27-.82.32-.32.05-.63.09-.99.09-.18 0-.36 0-.54-.05-.18 0-.41-.05-.59-.05-.18-.05-.36-.05-.5-.09-.18-.05-.27-.05-.41-.09-.09-.05-.14-.05-.14-.09s-.04-.09-.04-.14c0-.09.04-.18.04-.27 0 0 .05-.05.14 0ZM73.16 73.73v-8.05c0-.09 0-.14.05-.23.05-.05.09-.09.18-.09h2.4c.5 0 .95.05 1.31.14.36.09.63.23.81.41.18.18.32.45.41.72.09.32.14.68.14 1.13v.14c0 .36-.05.68-.09.95-.05.27-.14.5-.27.68-.14.18-.32.32-.54.45-.23.14-.54.18-.86.23l1.81 3.3s.05.09.05.14c.05.05.05.09.05.14s-.05.09-.09.09-.09.05-.14.05c-.09 0-.23-.05-.32-.09a.453.453 0 0 1-.27-.23l-1.81-3.3h-2.04v3.35c0 .09 0 .14-.05.23s-.09.09-.14.09c-.14 0-.23 0-.32-.05-.18-.09-.27-.14-.27-.18Zm2.67-7.74h-1.95v3.66h1.95c.41 0 .72-.05.95-.09.23-.05.45-.14.59-.27.14-.14.23-.32.32-.54.05-.23.09-.54.09-.9v-.14c0-.36-.05-.63-.09-.9-.05-.23-.14-.41-.32-.54-.14-.14-.36-.23-.59-.27h-.95ZM79.85 73.59v-7.92c0-.18.09-.32.23-.32h4.34s.14 0 .18.05.09.09.09.14c0 .09 0 .18-.05.27-.05.09-.05.14-.09.14h-3.94v3.21h3.57s.14 0 .18.05c.05.05.09.09.09.14 0 .09 0 .18-.05.27-.05.09-.09.14-.09.14h-3.66v3.35h3.85s.14 0 .18.05c.05.05.09.09.09.14 0 .09 0 .18-.05.27-.05.09-.05.14-.09.14h-4.25c-.09 0-.18 0-.27-.05-.23.05-.27 0-.27-.05ZM85.74 73.05c.18.05.45.14.81.18.36.05.68.09 1.09.09.23 0 .45 0 .68-.05.23-.05.45-.09.63-.23.18-.09.36-.23.5-.41.14-.18.18-.41.18-.72 0-.36-.09-.68-.27-.95-.18-.27-.41-.5-.72-.72-.27-.23-.59-.45-.95-.68l-.95-.68c-.32-.23-.54-.5-.72-.81a1.99 1.99 0 0 1-.27-1.04c0-.32.05-.59.18-.81.14-.23.32-.41.54-.59.23-.14.5-.27.77-.32.27-.09.59-.09.95-.09h.41c.18 0 .32.05.5.05s.32.05.5.09c.14.05.27.05.41.09.09.05.14.05.18.09s.05.09 0 .14a.4.4 0 0 1-.09.23c-.05.05-.09.09-.18.09-.27-.05-.54-.09-.77-.14-.23-.05-.5-.05-.77-.05s-.5.05-.72.09c-.23.05-.41.14-.59.23s-.32.23-.41.36c-.09.14-.14.32-.14.54 0 .32.09.59.27.81.18.23.41.45.72.68.27.23.59.45.95.63l.95.68c.27.27.54.54.72.86.18.32.27.72.27 1.13 0 .36-.09.68-.23.95-.14.27-.36.45-.59.63-.23.18-.54.27-.81.32-.32.05-.63.09-1 .09-.18 0-.36 0-.54-.05-.18 0-.41-.05-.59-.05-.18-.05-.36-.05-.5-.09-.18-.05-.27-.05-.41-.09-.09-.05-.14-.05-.14-.09s-.05-.09-.05-.14c0-.09.05-.18.05-.27 0 0 .05-.05.14 0ZM91.62 73.59v-7.92c0-.18.09-.32.23-.32h4.34s.14 0 .18.05.09.09.09.14c0 .09 0 .18-.05.27-.05.09-.05.14-.09.14h-4.03v3.21h3.57s.14 0 .18.05c.05.05.09.09.09.14 0 .09 0 .18-.05.27-.05.09-.09.14-.09.14h-3.71v3.35h3.85s.14 0 .18.05c.05.05.09.09.09.14 0 .09 0 .18-.05.27-.05.09-.05.14-.09.14h-4.25c-.09 0-.18 0-.27-.05-.09.05-.14 0-.14-.05ZM102.79 73.68l-.9-2.76h-3.03l-.95 2.81c-.05.09-.09.09-.18.14h-.32s-.09 0-.14-.05c-.05 0-.05-.05-.05-.09v-.09l2.76-8.28s.09-.09.18-.14c.09-.05.23-.05.36-.05.09 0 .18.05.23.18l2.76 8.23v.09s0 .09-.04.09-.09.05-.14.05c-.18 0-.27 0-.36-.05-.14.05-.18 0-.18-.09Zm-2.53-7.15-1.27 3.8h2.67l-1.22-3.8c-.05-.09-.05-.14-.05-.23s-.04-.14-.04-.23c0 .05-.04.14-.04.23s-.05.18-.05.23ZM104.56 73.73v-8.05c0-.09 0-.14.04-.23.05-.05.09-.09.18-.09h2.4c.5 0 .95.05 1.31.14s.63.23.82.41c.18.18.32.45.41.72.09.32.14.68.14 1.13v.14c0 .36-.05.68-.09.95-.05.27-.14.5-.27.68-.14.18-.32.32-.54.45-.23.14-.54.18-.86.23l1.81 3.3s.05.09.05.14c.04.05.04.09.04.14s-.04.09-.09.09-.09.05-.14.05c-.09 0-.23-.05-.32-.09a.453.453 0 0 1-.27-.23l-1.81-3.3h-2.04v3.35c0 .09 0 .14-.04.23s-.09.09-.14.09c-.13 0-.23 0-.32-.05-.18-.09-.27-.14-.27-.18Zm2.67-7.74h-1.95v3.66h1.95c.41 0 .72-.05.95-.09.23-.05.45-.14.59-.27.14-.14.23-.32.32-.54.05-.23.09-.54.09-.9v-.14c0-.36-.04-.63-.09-.9a.798.798 0 0 0-.32-.54c-.14-.14-.36-.23-.59-.27h-.95ZM111.79 68.39v2.35c0 .5.04.9.14 1.22.09.32.23.59.41.81.18.23.41.36.72.45.27.09.63.14 1.09.14h.09c.41 0 .77-.05 1.04-.09.27-.05.5-.09.59-.09.05 0 .09.05.14.18.04.14.04.23.04.32 0 .05-.04.09-.18.14-.09.05-.27.09-.41.09-.18.05-.36.05-.59.05s-.45.05-.63.05h-.09c-.5 0-.95-.05-1.31-.14-.36-.09-.68-.27-.9-.5-.23-.23-.41-.54-.54-.95-.14-.41-.18-.86-.18-1.45v-2.49c0-.59.04-1.09.18-1.45.14-.41.32-.72.54-.95.23-.23.54-.41.95-.5.36-.09.81-.14 1.31-.14h.09c.18 0 .41 0 .59.05.23 0 .41.05.59.05.18.05.32.05.45.09.14.05.18.09.18.14 0 .09 0 .23-.05.32 0 .09-.04.14-.09.14s-.14 0-.23-.05c-.09 0-.23-.05-.36-.05s-.32-.05-.5-.05-.36-.05-.54-.05h-.09c-.41 0-.77.05-1.09.14-.32.09-.54.23-.72.45-.18.18-.32.45-.41.81-.18.09-.23.45-.23.95ZM123.2 65.54v8.05c0 .09 0 .18-.04.23-.04.05-.09.09-.18.09-.14 0-.23 0-.36-.05-.14-.05-.14-.09-.14-.09V69.7H118v3.89c0 .09 0 .14-.04.23-.04.05-.09.09-.18.09s-.23 0-.32-.05-.18-.09-.18-.09V65.4s.05-.09.18-.09.23-.05.32-.05.14.05.18.09c.04.05.04.14.04.23v3.53h4.48v-3.66s.05-.09.14-.14c.09-.05.23-.05.36-.05.09 0 .14.05.18.09 0 .05.04.09.04.18ZM132.2 73.68l-.9-2.76h-3.03l-.95 2.81c-.05.09-.09.09-.18.14h-.32s-.09 0-.14-.05c-.04 0-.04-.05-.04-.09v-.09l2.76-8.28s.09-.09.18-.14c.09-.05.23-.05.36-.05.09 0 .18.05.23.18l2.76 8.23v.09s0 .09-.04.09-.09.05-.14.05c-.18 0-.27 0-.36-.05-.09.05-.18 0-.18-.09Zm-2.53-7.15-1.27 3.8h2.67l-1.22-3.8c-.04-.09-.04-.14-.04-.23s-.05-.14-.05-.23c0 .05-.04.14-.04.23s0 .18-.04.23ZM139.3 72.6v-7.19s.05-.09.14-.09c.09-.05.23-.05.36-.05.09 0 .14.05.14.09.04.05.04.14.04.23v8.05c0 .09 0 .14-.04.23s-.09.09-.14.09c-.09 0-.18 0-.27-.05-.09-.05-.18-.05-.18-.09l-4.66-7.28v7.06c0 .09 0 .14-.04.23-.05.05-.09.09-.14.09-.14 0-.23 0-.32-.05s-.14-.09-.14-.09v-8.32s.05-.09.14-.14c.09-.05.18-.05.32-.05.04 0 .09 0 .14.05.04.05.04.09.09.09l4.57 7.19ZM141.97 65.36h2.13c.54 0 1 .05 1.4.14.41.09.72.27.99.54s.45.54.59.95c.14.41.18.86.18 1.45v2.22c0 .59-.04 1.09-.18 1.45-.13.41-.32.72-.59.95-.27.23-.59.41-.99.5-.41.09-.86.14-1.4.14h-2.04c-.09 0-.18 0-.27-.05-.09-.05-.14-.09-.14-.14v-7.92c0-.14.04-.23.09-.27.04.09.13.05.23.05Zm2.13.63h-1.76v7.15h1.76c.45 0 .81-.05 1.13-.14.32-.09.54-.23.77-.41.18-.18.36-.45.45-.77.09-.32.14-.72.14-1.22v-2.08c0-.45-.05-.86-.14-1.22-.09-.32-.23-.59-.45-.77-.18-.18-.45-.36-.77-.45-.32-.05-.68-.09-1.13-.09ZM151.84 73.59c0 .09 0 .14-.05.23-.05.05-.09.09-.18.09-.14 0-.23 0-.32-.05s-.14-.09-.14-.09v-8.32s.05-.09.14-.14c.09-.05.23-.05.32-.05s.14.05.18.09c.05.05.05.14.05.23v8.01ZM158.76 72.6v-7.19s.04-.09.14-.09.23-.05.36-.05c.09 0 .14.05.14.09.04.05.04.14.04.23v8.05c0 .09 0 .14-.04.23-.05.09-.09.09-.14.09-.09 0-.18 0-.27-.05-.09-.05-.18-.05-.18-.09l-4.61-7.28v7.06c0 .09 0 .14-.05.23-.04.05-.09.09-.13.09-.14 0-.23 0-.32-.05s-.14-.09-.14-.09v-8.32s.04-.09.14-.14c.09-.05.18-.05.32-.05.04 0 .09 0 .13.05.05.05.05.09.09.09l4.52 7.19ZM166.4 72.6v-7.19s.04-.09.14-.09.23-.05.36-.05c.09 0 .14.05.14.09.04.05.04.14.04.23v8.05c0 .09 0 .14-.04.23-.05.09-.09.09-.14.09-.09 0-.18 0-.27-.05-.09-.05-.18-.05-.18-.09l-4.66-7.28v7.06c0 .09 0 .14-.04.23-.04.05-.09.09-.14.09-.13 0-.23 0-.32-.05s-.14-.09-.14-.09v-8.32s.04-.09.14-.14c.09-.05.18-.05.32-.05.05 0 .09 0 .14.05.04.05.04.09.09.09l4.57 7.19ZM171.83 73.91h-.09c-.54 0-1-.05-1.4-.14-.41-.09-.72-.27-1-.5-.27-.23-.45-.54-.59-.95-.14-.41-.18-.86-.18-1.45v-2.49c0-.59.04-1.09.18-1.45.14-.41.32-.72.59-.95.27-.23.59-.41 1-.5s.86-.14 1.4-.14h.09c.54 0 1 .05 1.4.14s.72.27.99.5c.27.23.45.54.59.95.14.41.18.86.18 1.45v2.49c0 .59-.04 1.09-.18 1.45-.14.41-.32.72-.59.95-.27.23-.59.41-.99.5-.41.09-.86.14-1.4.14Zm-2.53-5.56v2.44c0 .45.04.86.14 1.18.09.32.23.59.45.77.18.18.45.32.77.41.32.09.68.14 1.13.14h.09c.45 0 .82-.05 1.13-.14.32-.09.54-.23.77-.41.18-.18.36-.45.45-.77.09-.32.14-.72.14-1.18v-2.44c0-.45-.04-.86-.14-1.18-.09-.32-.23-.59-.45-.77-.18-.18-.45-.32-.77-.41a4.1 4.1 0 0 0-1.13-.14h-.09c-.45 0-.81.05-1.13.14-.32.09-.54.23-.77.41-.18.18-.36.45-.45.77-.09.32-.14.68-.14 1.18ZM178.89 72.55l2.13-7.15c.04-.09.09-.14.18-.18.09-.05.18-.05.32-.05.09 0 .14 0 .18.05.05.05.09.09.05.23l-2.58 8.23s-.05.09-.09.14c-.04.05-.09.05-.14.05-.18 0-.32 0-.36-.05-.05-.05-.14-.05-.14-.09l-2.58-8.28c-.04-.09 0-.14.05-.18.04-.05.09-.05.14-.05.14 0 .27 0 .36.05.09.05.14.09.18.18l2.17 7.1s.05.09.05.23c0 .09.04.18.04.23 0-.09 0-.14.04-.23v-.23ZM187.12 73.68l-.9-2.76h-3.03l-.95 2.81c-.05.09-.09.09-.18.14h-.32s-.09 0-.14-.05c-.04 0-.04-.05-.04-.09v-.09l2.76-8.28s.09-.09.18-.14c.09-.05.23-.05.36-.05.09 0 .18.05.23.18l2.76 8.23v.09s0 .09-.05.09-.09.05-.13.05c-.18 0-.27 0-.36-.05-.09.05-.14 0-.18-.09Zm-2.53-7.15-1.27 3.8h2.67l-1.27-3.8c-.04-.09-.04-.14-.04-.23s-.05-.14-.05-.23c0 .05-.04.14-.04.23.04.09.04.18 0 .23ZM190.74 65.99v7.6c0 .09 0 .14-.04.23-.05.05-.09.09-.14.09-.14 0-.23 0-.36-.05-.09-.05-.14-.09-.14-.09v-7.74h-2.35c-.09 0-.14 0-.23-.05-.04-.05-.09-.09-.09-.14 0-.09 0-.18.04-.27s.04-.14.09-.14h5.56c.09 0 .14 0 .18.05.05.05.09.09.09.14 0 .09 0 .23-.04.32-.05.09-.05.14-.09.14h-2.49v-.09ZM194.95 73.59c0 .09 0 .14-.05.23s-.09.09-.18.09c-.14 0-.23 0-.32-.05s-.14-.09-.14-.09v-8.32s.04-.09.14-.14c.09-.05.23-.05.32-.05s.14.05.18.09c.05.05.05.14.05.23v8.01ZM199.7 73.91h-.09c-.54 0-.99-.05-1.4-.14-.41-.09-.72-.27-.99-.5-.27-.23-.45-.54-.59-.95-.13-.41-.18-.86-.18-1.45v-2.49c0-.59.05-1.09.18-1.45.14-.41.32-.72.59-.95.27-.23.59-.41.99-.5s.86-.14 1.4-.14h.09c.54 0 1 .05 1.4.14.41.09.72.27 1 .5.27.23.45.54.59.95.14.41.18.86.18 1.45v2.49c0 .59-.04 1.09-.18 1.45-.14.41-.32.72-.59.95-.27.23-.59.41-1 .5-.41.09-.86.14-1.4.14Zm-2.53-5.56v2.44c0 .45.05.86.14 1.18.09.32.23.59.45.77.18.18.45.32.77.41.32.09.68.14 1.13.14h.09c.45 0 .82-.05 1.13-.14.32-.09.54-.23.77-.41.18-.18.36-.45.45-.77.09-.32.14-.72.14-1.18v-2.44c0-.45-.05-.86-.14-1.18-.09-.32-.23-.59-.45-.77-.18-.18-.45-.32-.77-.41a4.1 4.1 0 0 0-1.13-.14h-.09c-.45 0-.82.05-1.13.14-.32.09-.54.23-.77.41-.18.18-.36.45-.45.77-.09.32-.14.68-.14 1.18ZM209.7 72.6v-7.19s.04-.09.14-.09.23-.05.36-.05c.09 0 .14.05.14.09.04.05.04.14.04.23v8.05c0 .09 0 .14-.04.23s-.09.09-.14.09c-.09 0-.18 0-.27-.05-.09-.05-.18-.05-.18-.09l-4.66-7.28v7.06c0 .09 0 .14-.04.23-.04.05-.09.09-.14.09-.14 0-.23 0-.32-.05s-.13-.09-.13-.09v-8.32s.04-.09.13-.14c.09-.05.18-.05.32-.05.04 0 .09 0 .14.05.04.05.04.09.09.09l4.57 7.19Z" class="cls-7"></path><path d="M58.68 53.55a5.95 5.95 0 0 0 1.45-4.03V34.45c0-2.04-.9-3.39-1.45-4.03L46.19 17.71v48.5l12.49-12.67ZM4.8 55.9c.27.81 1 2.26 2.76 3.26l13.03 7.51c1.76 1.04 3.39.9 4.21.77l17.24-4.48L0 38.71 4.8 55.9ZM29.09 6.14c-.81-.18-2.49-.27-4.21.77l-13.03 7.51c-1.76 1-2.49 2.49-2.76 3.26L4.34 34.87l42.03-24.26-17.28-4.47Z" class="cls-1"></path><path d="m36.01 27.67 9.68 9.91V18.22l-9.68 9.46ZM17.96 38.53l3.66-13.08L5.2 34.96l12.76 3.57Z" class="cls-6"></path><path d="m22.76 39.89 22.94-22.4H35.48l-13.21 7.6-3.8 13.57 4.3 1.22Z" style="fill:#009bd9"></path><path d="m45.65 46.31.05-8.01-10.04-10.27-3.12 3.03 3.21 12.49 9.91 2.76Z" style="fill:#66b2e4"></path><path d="m45.7 47.4-20.59 5.25 17.42 10.04.05-.14 3.12-5.38V47.4Z" class="cls-6"></path><path d="m24.48 52.24 21.17-5.38L4.57 35.32l4.48 8.01 15.43 8.91Z" style="fill:#0086cd"></path><path d="M270.38 80c-22.04 0-39.96-17.92-40-39.96 0-10.7 4.12-20.75 11.69-28.31C249.63 4.17 259.64 0 270.34 0c22.08 0 40 17.92 40.04 39.96.04 22.08-17.92 40.04-40 40.04Z" style="fill:#fff"></path><path d="M270.34 0c-10.7 0-20.71 4.17-28.27 11.73-7.56 7.56-11.69 17.62-11.69 28.31 0 22.04 17.96 39.96 40 39.96h.04c22.04 0 40-17.96 39.96-40.04 0-22-17.96-39.96-40.04-39.96Zm0 1.03c21.53 0 39.01 17.49 39.05 38.97 0 21.53-17.44 39.01-38.97 39.06h-.04c-21.48 0-38.97-17.49-39.01-38.97 0-10.44 4.04-20.24 11.39-27.58 7.39-7.43 17.19-11.47 27.58-11.47Z"></path><path d="m275.11 27.02-5.41-9.37.69-1.2 6.06 10.57h-1.33Zm-2.54 0-4.12-7.13.69-1.16 4.77 8.29h-1.33Zm-2.58 0-2.84-4.9.73-1.2 3.48 6.1h-1.37Zm-2.62 0-1.5-2.66.73-1.2 2.19 3.87h-1.42Zm-3.05 0 .94-1.59.95 1.59h-1.89Zm-1.16-11.64v9.97c0 4.04 3.27 7.3 7.3 7.3s7.3-3.27 7.3-7.3v-9.97h-14.61ZM288.81 40.17v7.78h-2.15V36.09h2.96l2.88 7.3v-7.3h2.19v11.86h-2.71l-3.18-7.78Zm-6.14-4.12h2.41v11.86h-2.41V36.05Zm-9.24 0h2.49v5.16l3.09-5.16h2.58l-3.44 5.46 3.44 6.4h-2.88l-2.79-5.76v5.76h-2.49V36.05Zm-4.04 9.24h-3.44l-.65 2.62h-2.49l3.35-11.86h3.18l3.31 11.86h-2.62l-.65-2.62Zm-.47-2.06-1.2-4.9-1.24 4.9h2.45Zm-13.28-7.17h6.4v2.02h-3.91v2.53h3.61v2.06h-3.61v3.18h3.91v2.11h-6.4v-11.9Zm-5.41 0c3.18 0 4.17 1.68 4.17 5.93s-.99 5.93-4.17 5.93h-4.08V36.06h4.08Zm-1.59 9.84h1.12c1.85 0 2.06-1.07 2.06-3.91s-.21-3.91-2.06-3.91h-1.12v7.82ZM249.93 54.78V50.7s.04-.09.09-.09c.04-.04.13-.04.21-.09.09 0 .17-.04.26-.04h.21c.09 0 .13.04.17.09.04.04.09.13.09.17v4.08c0 .43-.04.82-.13 1.12-.09.3-.26.56-.43.73-.21.17-.43.3-.73.39-.3.09-.64.13-1.07.13h-.09c-.39 0-.73-.04-1.03-.13-.3-.09-.56-.21-.73-.39-.21-.17-.34-.43-.43-.73-.09-.3-.13-.69-.13-1.12V50.7s.04-.09.09-.09c.04-.04.13-.04.21-.09.09 0 .17-.04.26-.04h.22c.09 0 .13.04.17.09.04.04.09.13.09.17v4c0 .26 0 .47.04.64.04.17.13.34.21.43.09.13.21.21.39.26s.39.09.64.09h.09c.26 0 .47-.04.65-.09s.3-.13.43-.26c.09-.13.17-.26.21-.43 0-.13.04-.34.04-.6ZM256.16 55.21V50.7l.09-.09c.09 0 .13-.04.22-.04s.17 0 .26-.04h.21c.17 0 .21.09.21.26v6.19c0 .09-.04.13-.09.17s-.13.04-.17.04h-.17c-.09 0-.17 0-.26-.04-.09 0-.17-.04-.22-.04-.09 0-.13-.04-.13-.09l-2.92-4.51v4.43c0 .09-.04.13-.08.17-.04.04-.13.09-.17.09h-.22c-.09 0-.17 0-.26-.04-.09 0-.17-.04-.21-.04-.04-.04-.09-.04-.09-.09v-6.32s.04-.09.09-.09c.04-.04.13-.04.21-.04s.17 0 .26-.04h.22c.09 0 .13 0 .17.04.04.04.08.09.13.13l2.92 4.51ZM259.42 56.93c0 .09-.04.13-.09.17a.34.34 0 0 1-.21.09h-.21c-.09 0-.17 0-.26-.04-.09 0-.17-.04-.21-.04-.04-.04-.09-.04-.09-.09V50.7s.04-.09.09-.09c.04-.04.13-.04.21-.04s.17 0 .26-.04h.21c.09 0 .13.04.21.09.04.04.09.09.09.17v6.14ZM262.9 55.34l1.38-4.64c.09-.09.17-.13.3-.17.13 0 .26-.04.39-.04h.17s.13 0 .17.04c.04 0 .09.04.09.09v.17l-2.06 6.23s-.04.09-.09.13-.09.04-.17.04c-.22 0-.34 0-.52-.04-.13 0-.21-.04-.26-.09l-2.11-6.23v-.13s.04-.09.09-.09c.04-.04.09-.04.13-.04h.39c.09 0 .17 0 .26.04.09 0 .13.04.21.09l.13.13 1.38 4.64c.04.09.04.13.04.21s0 .17.04.21c0-.09 0-.13.04-.21-.04-.17 0-.26 0-.34ZM266.21 56.89v-6.06c0-.09.04-.13.09-.17.04-.04.13-.04.21-.04h3.61c.09 0 .13.04.17.09.04.04.09.13.09.17v.17c0 .09 0 .17-.04.21 0 .09-.04.13-.04.21-.04.04-.04.09-.09.09h-2.88v1.76h2.45s.13.04.17.09.09.13.09.17v.21c0 .09 0 .17-.04.26 0 .09-.04.13-.04.21-.04.04-.04.09-.09.09h-2.49v1.85h2.79c.09 0 .13.04.17.09.04.04.09.13.09.17v.17c0 .09 0 .17-.04.21 0 .09-.04.13-.04.21-.04.04-.04.09-.09.09h-3.52c-.09 0-.17 0-.26-.04-.21-.13-.26-.17-.26-.21ZM273.77 51.56h-1.25v2.15h1.25c.26 0 .43 0 .6-.04.13-.04.26-.09.34-.13.09-.09.13-.17.17-.3.04-.13.04-.3.04-.52v-.21c0-.21 0-.39-.04-.52s-.09-.21-.17-.3-.21-.13-.34-.13c-.13.04-.34 0-.6 0Zm-2.28 5.46v-6.14c0-.09.04-.13.09-.17a.34.34 0 0 1 .21-.09h1.98c.43 0 .77.04 1.07.09.3.04.52.17.73.3.17.17.3.34.39.6.09.26.13.56.13.95v.21c0 .3-.04.52-.09.73-.04.21-.13.39-.21.56-.09.17-.21.26-.39.34-.17.09-.34.17-.56.21l1.25 2.15c.08.13.08.21.08.26s0 .09-.04.09l-.09.04s-.09 0-.13.04h-.3c-.09 0-.17 0-.26-.04-.09 0-.17-.04-.21-.09-.09-.04-.13-.09-.13-.13l-1.33-2.28h-1.12v2.28c0 .09-.04.13-.09.17-.04.04-.13.04-.17.04h-.21c-.09 0-.17 0-.26-.04-.09 0-.17-.04-.21-.04q-.13 0-.13-.04ZM277.25 56.07s.13.04.21.04c.09.04.22.04.34.09.13.04.26.04.43.04s.3.04.47.04.34 0 .47-.04c.17-.04.3-.09.43-.13.13-.04.21-.13.3-.26.09-.09.13-.21.13-.39 0-.21-.09-.39-.21-.56-.13-.13-.3-.3-.51-.43-.21-.13-.43-.26-.69-.39-.26-.13-.47-.3-.69-.47-.21-.17-.39-.39-.52-.64a1.99 1.99 0 0 1-.21-.9c0-.3.04-.56.17-.73.09-.21.26-.39.43-.52.17-.13.39-.21.64-.3.26-.04.56-.09.86-.09h.3c.13 0 .26 0 .43.04.17 0 .3.04.43.04.13.04.26.04.34.09.09.04.13.09.17.13v.21c0 .17-.04.3-.09.39s-.13.13-.21.13c-.13-.04-.3-.04-.52-.09-.17-.04-.39-.04-.64-.04-.39 0-.69.04-.9.17-.21.13-.34.3-.34.56 0 .21.09.39.21.52.13.13.3.26.52.39.21.13.43.26.69.39.26.13.47.3.69.47.21.17.39.39.52.64.13.26.21.56.21.95 0 .34-.09.64-.17.86-.13.21-.3.39-.52.52-.22.13-.47.21-.73.26-.26.04-.56.09-.86.09h-.43c-.13 0-.3-.04-.43-.04s-.3-.04-.43-.04c-.13-.04-.26-.04-.34-.09-.09-.04-.13-.04-.17-.09v-.21c0-.17.04-.3.09-.43-.04-.13.04-.17.13-.17ZM283.27 56.93c0 .09-.04.13-.09.17-.04.04-.13.09-.22.09h-.21c-.09 0-.17 0-.26-.04-.09 0-.17-.04-.21-.04-.04-.04-.08-.04-.08-.09V50.7s.04-.09.08-.09c.04-.04.13-.04.21-.04s.17 0 .26-.04h.21c.09 0 .13.04.22.09.04.04.09.09.09.17v6.14ZM287.14 51.6v5.33c0 .09-.04.13-.09.17-.04.04-.13.09-.17.09h-.21c-.09 0-.17 0-.26-.04-.09 0-.17-.04-.21-.04-.04-.04-.09-.04-.09-.09v-5.41h-1.68c-.09 0-.13-.04-.17-.09-.04-.04-.09-.13-.09-.17v-.17c0-.09 0-.17.04-.21 0-.09.04-.13.04-.21.04-.04.04-.09.09-.09h4.43c.09 0 .13.04.17.09.04.04.09.13.09.17v.17c0 .09 0 .17-.04.21 0 .09-.04.13-.04.21-.04.04-.04.09-.09.09h-1.72ZM292.85 54.69v2.23c0 .09-.04.13-.09.17a.34.34 0 0 1-.21.09h-.21c-.09 0-.17 0-.26-.04-.09 0-.17-.04-.21-.04-.04-.04-.09-.04-.09-.09v-2.28l-1.98-3.82c-.09-.13-.09-.21-.04-.3.04-.04.13-.09.26-.09h.26c.09 0 .17 0 .26.04.09 0 .13.04.21.04.04 0 .09.04.13.09l1.42 2.92 1.42-2.92s.04-.04.13-.09c.04 0 .13-.04.17-.04.09 0 .17 0 .26-.04h.26c.13 0 .21.04.26.09s.04.17-.04.3l-1.89 3.78Z"></path></g></svg>